<?xml version="1.0" standalone="no"?>
<!DOCTYPE svg PUBLIC "-//W3C//DTD SVG 20010904//EN"
 "http://www.w3.org/TR/2001/REC-SVG-20010904/DTD/svg10.dtd">
<svg version="1.0" xmlns="http://www.w3.org/2000/svg"
 width="402.000000pt" height="366.000000pt" viewBox="0 0 402.000000 366.000000"
 preserveAspectRatio="xMidYMid meet">

<g transform="translate(0.000000,366.000000) scale(0.100000,-0.100000)"
fill="#000000" stroke="none">
<path d="M430 3440 l0 -220 -215 0 -215 0 0 -660 0 -660 215 0 215 0 0 -290 0
-290 215 0 214 0 3 -148 3 -147 213 -3 212 -2 0 -290 0 -290 215 0 215 0 0
-220 0 -220 290 0 290 0 0 220 0 220 215 0 215 0 0 290 0 290 213 2 212 3 3
148 3 147 214 0 215 0 0 290 0 290 215 0 215 0 0 660 0 660 -215 0 -215 0 0
220 0 220 -645 0 -645 0 0 -220 0 -220 -290 0 -290 0 0 220 0 220 -645 0 -645
0 0 -220z m720 -805 l0 -435 -290 0 -290 0 0 435 0 435 290 0 290 0 0 -435z"/>
</g>
</svg>
